<?xml version="1.0" encoding="iso-8859-1"?>
<!-- Generator: Adobe Illustrator 16.0.0, SVG Export Plug-In . SVG Version: 6.00 Build 0)  -->
<!DOCTYPE svg PUBLIC "-//W3C//DTD SVG 1.1//EN" "http://www.w3.org/Graphics/SVG/1.1/DTD/svg11.dtd">
<svg version="1.1" id="Capa_1" xmlns="http://www.w3.org/2000/svg" xmlns:xlink="http://www.w3.org/1999/xlink" x="0px" y="0px"
	 width="563.314px" height="563.314px" viewBox="0 0 563.314 563.314" style="enable-background:new 0 0 563.314 563.314;"
	 xml:space="preserve">
<g>
	<g>
		<path d="M557.307,450.575c-0.396-2.231-1.191-4.366-2.398-6.202c-2.04-3.092-4.513-5.467-7.283-7.421
			c-1.46-2.954-2.925-5.908-4.386-8.862c0.404-3.243,1.146-6.507,1.354-9.768c0.665-10.493-2.64-19.983-7.274-29.277
			c-1.257-2.518-1.045-6.455-0.069-9.237c1.518-4.333,4.537-8.115,6.364-12.371c0.771-1.795,0.657-4.365,0.029-6.278
			c-1.053-3.199-2.84-6.157-5.108-10.849c-2.117,0.93-5.051,2.243-8.005,3.513c-0.078,0.032-0.159,0.073-0.237,0.11
			c4.64-12.049,6.888-25.027,6.594-37.944c-0.069-3.011-0.723-5.896-1.856-8.531c0.608-2.33,0.253-5.157-1.134-8.568
			c-3.289-8.082-4.093-15.561,0.566-24.133c2.277-4.187-0.51-11.155-1.109-16.854c-0.094-0.901-0.824-1.722-1.126-2.624
			c-1.759-5.271-3.15-10.693-5.288-15.801c-2.537-6.075-5.051-12.354-8.841-17.642c-2.317-3.235-7.12-4.614-10.604-7.111
			c-3.509-2.513-5.614-5.459-6.756-10.282c-1.033-4.366-5.933-8.16-9.772-11.453c-10.069-8.633-19.678-18.27-31.028-24.802
			c-9.42-5.422-17.267-13.708-29.094-15.773c-6.594-1.151-12.277-7.267-18.487-10.955c-3.284-1.95-6.711-3.753-10.261-5.149
			c-5.153-2.024-10.608-3.309-15.684-5.488c-4.7-2.016-9.033-4.871-13.606-7.209c-3.46-1.771-6.908-3.733-10.592-4.852
			c-6.74-2.04-13.75-3.203-20.461-5.316c-6.08-1.917-11.918-4.61-17.854-6.981c-0.886-0.351-1.689-1-2.595-1.179
			c-8.434-1.673-16.985-2.88-25.3-5.014c-7.251-1.865-14.24-4.753-21.343-7.189c-1.143-0.392-2.273-1.122-3.419-1.146
			c-12.542-0.261-23.986-4.623-35.696-8.576c-8.633-2.917-18.739-2.02-26.883-5.708c-12.42-5.622-24.864-2.942-37.271-3.268
			c-11.322-0.298-21.775,3.855-32.407,7.724c-7.271,2.644-13.697,5.973-19.409,10.673c-2.444,0.779-4.68,2.118-6.414,4.109
			c-1.481,1.701-2.623,3.619-3.402,5.639c-0.314,0.334-0.632,0.669-0.971,1.024c0.196,0.041,0.379,0.082,0.571,0.126
			c-1.424,4.574-1.004,9.592,1.718,13.945c0.681,1.093,1.705,1.971,2.876,2.587c-0.123,2.574,0.094,5.234,0.122,7.837
			c0.082,7.821-1.787,16.247,0.514,23.333c4.149,12.799,2.293,27.287,11.008,38.789c1.016,1.343,0.229,4.047,0.277,6.124
			c-0.849,0-1.762,0.114-2.668,0.212c-0.465-0.677-1.057-1.314-1.804-1.873c-8.927-6.712-17.283-14.084-25.047-22.02
			c-0.4-0.934-0.779-1.885-1.118-2.876c-0.648-1.905-3.166-3.627-5.218-4.504c-0.281-0.123-0.575-0.221-0.857-0.335
			c-3.745-4.21-7.332-8.56-10.755-13.04c-0.449-3.374-1.012-6.361-2.362-6.773c-1.044-0.318-2.044-0.481-3.007-0.526
			c-2.754-3.917-5.377-7.927-7.887-12.016c0.278-3.741-1.379-6.805-5.585-9.596c-2.913-1.934-6.43-2.958-10.322-4.684
			c-0.061,4.015-8.543,4.643-3.676,11.399c0.653,0.906-4.981,6.336-7.699,9.674c-7.801,9.58-15.757,18.862-21.636,30.053
			c-2.726,5.194-2.358,9.984-3.762,14.843c-1.787,6.193-4.672,12.064-7.12,18.062c-0.261,0.641-0.975,1.15-1.082,1.791
			c-1.591,9.755-4.712,19.601-4.218,29.262c0.53,10.396,4.541,20.6,6.875,30.923c0.694,3.063,1.318,6.278,1.146,9.375
			c0,0.005,0,0.009,0,0.017c-0.702,3.378,0.722,6.896,5.149,7.548c13.68,2.016,27.214-2.488,36.651-11.57
			c0.004,0,0.012-0.004,0.016-0.004c2.897-0.592,4.766-3.276,5.227-6.137c0.114-0.167,0.237-0.33,0.351-0.498
			c8.817-6.838,18.935-11.277,28.666-16.36c4.337-2.265,10.31-1.404,15.537-1.971c0.62,0.824,1.244,1.644,1.869,2.468
			c-1.885,2.403-3.301,5.573-5.741,7.075c-10.824,6.654-22.191,12.444-32.864,19.318c-5.227,3.366-9.731,7.532-11.049,13.444
			c-1.358,0.526-2.587,1.579-3.464,3.296c-0.363,0.715-0.681,1.429-0.971,2.146c-0.159-0.897-0.314-1.804-0.477-2.722
			c-8.335,4.525-10.053,13.375-5.374,21.738c0.788,1.408,0.983,3.13,1.628,4.631c3.86,8.972,7.352,18.132,11.82,26.794
			c2.656,5.152,6.108,10.465,10.559,13.986c6.079,4.81,13.533,7.85,20.245,11.896c5.055,3.048,9.8,6.605,14.819,9.728
			c4.512,2.807,9.082,5.577,13.852,7.902c6.862,3.346,14.219,5.766,20.841,9.507c9.678,5.467,19.694,7.728,30.833,8.376
			c9.18,0.534,18.197,4.365,27.222,6.969c4.704,1.354,9.413,2.881,13.852,4.908c6.761,3.084,13.235,6.789,19.939,10.008
			c6.079,2.922,12.293,5.562,18.454,8.312c4.908,2.19,9.829,4.361,14.741,6.54c1.53,0.678,3.031,1.428,4.594,2.016
			c9.253,3.488,18.471,7.087,27.806,10.335c4.41,1.533,9.159,2.101,13.57,3.643c2.076,0.727,3.985,2.477,5.487,4.19
			c5.141,5.859,10.004,12.44,14.003,18.621c5.854,9.05,12.688,8.523,20.652,8.764c0.624,0.021,1.24,0.417,2.122,0.73
			c-0.217-1.905-0.396-3.479-0.73-6.409c3.904,1.008,6.989,1.803,10.8,2.786c8.629-8.413,19.229-12.966,32.709-11.799
			c12.366,1.068,25.015,1.008,37.353-0.318c11.306-1.216,22.354-4.798,33.521-7.308c1.416-0.318,2.868-0.616,4.312-0.645
			c12.559-0.24,25.145-0.017,37.679-0.567c8.323,1.506,16.646,3.02,24.981,4.427c6.455,4.109,13.795,6.561,21.261,5.643
			C563.57,473.488,568.025,457.107,557.307,450.575z"/>
	</g>
</g>
<g>
</g>
<g>
</g>
<g>
</g>
<g>
</g>
<g>
</g>
<g>
</g>
<g>
</g>
<g>
</g>
<g>
</g>
<g>
</g>
<g>
</g>
<g>
</g>
<g>
</g>
<g>
</g>
<g>
</g>
</svg>
