<?xml version="1.0" encoding="iso-8859-1"?>
<!-- Generator: Adobe Illustrator 16.0.0, SVG Export Plug-In . SVG Version: 6.00 Build 0)  -->
<!DOCTYPE svg PUBLIC "-//W3C//DTD SVG 1.1//EN" "http://www.w3.org/Graphics/SVG/1.1/DTD/svg11.dtd">
<svg version="1.1" id="Capa_1" xmlns="http://www.w3.org/2000/svg" xmlns:xlink="http://www.w3.org/1999/xlink" x="0px" y="0px"
	 width="580.937px" height="580.937px" viewBox="0 0 580.937 580.937" style="enable-background:new 0 0 580.937 580.937;"
	 xml:space="preserve">
<g>
	<g>
		<path d="M568.962,291.355c-8.67,1.934-17.349,4.39-25.741,6.764c-2.664,0.755-5.328,1.51-7.992,2.249l-0.054-0.086l27.683-25.042
			c0.637-0.575,0.833-1.657,0.506-2.452c-0.265-1.334-0.763-3.823-2.692-4.88c-34.395-18.862-70.992-38.874-107.088-57.985
			c-3.599-1.905-7.604-2.893-11.477-3.852c-3.057-0.755-5.945-1.469-8.65-2.595c-6.724-2.794-12.934-6.12-18.466-9.881
			c-7.218-4.913-14.137-10.114-21.465-15.619c-3.089-2.321-6.222-4.675-9.433-7.046c-0.522-0.384-1.199-0.506-1.82-0.306
			c-0.62,0.192-1.113,0.673-1.321,1.285l-1.718,5.047l-15.594-7.842c-0.612-0.306-1.338-0.294-1.93,0.053
			c-0.596,0.339-0.979,0.955-1.021,1.64l-0.44,6.96l-14.219-6.785c-0.522-0.253-1.126-0.261-1.66-0.045
			c-0.535,0.224-0.951,0.665-1.143,1.208l-2.803,7.989l-9.874-2.632c-1.049-0.277-2.126,0.31-2.46,1.334l-1.865,5.634l-11.966-6.385
			c-0.702-0.379-1.567-0.306-2.208,0.184c-0.636,0.49-0.926,1.306-0.738,2.089l1.828,7.687l-9.155-3.746
			c-0.539-0.216-1.143-0.2-1.665,0.053l-6.193,3.036c-5.173,2.546-9.637,4.745-14.06,6.679c-0.396,0-1.188-0.237-1.763-0.408
			c-0.767-0.229-1.436-0.428-2.068-0.428c-0.69,0-1.657,0.469-2.032,1.048c-3.692,5.696-7.254,6.426-9.947,6.426
			c-2.942,0-6.051-1.036-9.343-2.134c-3.456-1.151-7.034-2.342-10.979-2.342c-0.004,0-0.008,0-0.016,0
			c-9.282,0.191-19.98,0.689-29.499,4.169c-10.935,4.002-21.379,9.099-31.477,14.027c-4.104,2.003-8.144,3.978-12.114,5.822
			c-0.355,0.167-0.657,0.433-0.865,0.767l-21.208,33.819c-0.367,0.587-0.416,1.318-0.122,1.942c0.29,0.628,0.877,1.065,1.562,1.163
			l11.832,1.689c-12.334,4.007-24.203,2.848-35.316-3.431c-8.527-4.814-16.932-10.253-25.06-15.512
			c-3.472-2.244-6.944-4.492-10.437-6.699c-18.454-11.669-36.899-17.344-56.386-17.344c-11.444,0-23.37,2.048-35.439,6.095
			c-0.861,0.29-1.428,1.11-1.391,2.016s0.669,1.681,1.546,1.897c4.251,1.053,8.584,1.277,12.774,1.497
			c8.968,0.469,16.826,0.877,23.007,8.609l-8.364,1.436c-0.934,0.159-1.636,0.943-1.693,1.889c-0.057,0.947,0.551,1.808,1.461,2.077
			l13.937,4.104l-6.503,4.818c-0.53,0.396-0.84,1.02-0.828,1.681s0.347,1.273,0.894,1.644l8.388,5.696l-13.068,4.786
			c-0.836,0.306-1.375,1.114-1.338,2.003c0.037,0.889,0.649,1.648,1.51,1.881l11.048,2.974c0.575,4.109,1.175,8.087,1.759,11.983
			c1.457,9.702,2.835,18.87,3.57,28.045c0.085,1.081,0.204,2.179,0.318,3.288c0.873,8.295,1.624,15.46-7.899,19.56
			c-0.682,0.294-1.146,0.935-1.224,1.669c-0.073,0.738,0.253,1.457,0.861,1.881l6.079,4.243c-8.152,15.3-16.573,25.011-32.17,26.369
			c-1.077,0.094-1.894,1.012-1.861,2.093s0.906,1.95,1.983,1.979c35.729,0.934,74.244-11.474,102.057-32.727
			c13.272-10.143,28.797-20.963,45.084-20.963c4.023,0,8.054,0.661,11.991,1.959c1.571,3.696,2.979,7.197,4.321,10.534
			c3.101,7.703,5.781,14.357,9.302,20.751c6.655,12.085,8.099,21.783-6.487,29.846c-0.799,0.44-1.208,1.362-1,2.252
			s0.987,1.529,1.897,1.57c23.207,0.996,51.991-5.854,70.392-16.438c9.474-5.45,19.478-10.403,29.156-15.197l4.81-2.383
			c1.33-0.657,3.538-0.882,4.598-0.474c15.814,6.173,33.113,9.05,54.436,9.05c13.338,0,26.605-1.062,40.657-2.188
			c2.815-0.224,5.643-0.452,8.482-0.669c-0.433,0.376-0.856,0.743-1.277,1.105c-3.794,3.276-7.07,6.108-10.11,9.246
			c-4.194,4.337-6.124,8.388-5.892,12.383c0.217,3.708,2.354,7.25,6.357,10.521c1.456,1.191,2.904,2.403,4.361,3.628
			c6.903,5.785,14.043,11.774,24.063,17.136c0.302,0.163,0.633,0.24,0.963,0.24c0.343,0,0.686-0.085,0.991-0.257
			c0.608-0.339,1-0.963,1.045-1.656l3.194-50.686l32.371-9.638c37.1-11.044,73.982-22.02,110.837-33.089l1.779-0.526
			c5.169-1.521,10.514-3.092,14.488-6.482c3.439-2.93,3.859-9.307,3.88-13.852c0-0.543-0.367-1.347-0.751-1.73
			C578.472,292.416,572.034,290.662,568.962,291.355z"/>
	</g>
</g>
<g>
</g>
<g>
</g>
<g>
</g>
<g>
</g>
<g>
</g>
<g>
</g>
<g>
</g>
<g>
</g>
<g>
</g>
<g>
</g>
<g>
</g>
<g>
</g>
<g>
</g>
<g>
</g>
<g>
</g>
</svg>
