<?xml version="1.0" encoding="iso-8859-1"?>
<!-- Generator: Adobe Illustrator 16.0.0, SVG Export Plug-In . SVG Version: 6.00 Build 0)  -->
<!DOCTYPE svg PUBLIC "-//W3C//DTD SVG 1.1//EN" "http://www.w3.org/Graphics/SVG/1.1/DTD/svg11.dtd">
<svg version="1.1" id="Capa_1" xmlns="http://www.w3.org/2000/svg" xmlns:xlink="http://www.w3.org/1999/xlink" x="0px" y="0px"
	 width="581.821px" height="581.821px" viewBox="0 0 581.821 581.821" style="enable-background:new 0 0 581.821 581.821;"
	 xml:space="preserve">
<g>
	<g>
		<path d="M580.033,296.073c-6.21-1.004-10.229-1.656-14.251-2.314c-0.457-0.807-1.519-1.938-1.285-2.354
			c9.6-17.373,2.704-26.684-13.089-36.961c-32.641-21.245-67.61-34.913-105.301-43.468c-13.052-2.962-27.463-7.34-37.234-15.745
			c-19.025-16.353-39.07-11.962-58.947-7.193c-37.785,9.069-75.154,19.894-112.653,30.159c-12.334,3.374-25.508,5.842-31.098,22.069
			c6.675,2.158,12.897,4.174,22.583,7.303c-27.687,9.481-51.208,17.303-76.793,3.019c-33.378-18.642-67.385-36.198-101.543-53.387
			C34.627,189.254,17.842,183.272,0,179.364c16.993,14.317,34.101,28.499,50.939,42.991c12.061,10.375,23.876,21.045,35.606,31.8
			c18.075,16.577,20.531,35.374,1.775,51.334c-23.562,20.061-50.47,36.201-76.002,53.941c-1.921,1.338-4.353,1.947-6.544,2.893
			c0.485,1.539,0.971,3.076,1.457,4.615c22.146-6.533,44.99-11.355,66.267-20.021c27.544-11.219,54.113-24.969,80.556-38.686
			c14.063-7.295,27.67-9.393,42.889-5.023c12.771,3.668,25.904,6.072,38.875,9.033c-0.363,1-0.726,2-1.089,2.996
			c-8.837,2.443-17.67,4.887-26.508,7.33c-0.175,1.041-0.347,2.086-0.522,3.127c15.553,5.564,30.939,11.701,46.777,16.277
			c3.717,1.074,9.298-2.516,13.423-4.969c14.635-8.689,28.38-10.764,44.851-2.375c10.486,5.338,23.926,5.93,36.146,6.549
			c19.693,1,39.478,0.27,62.982,0.27c-20.853,20.967-1.073,40.217-5.569,59.062c1.469,0.648,2.942,1.297,4.415,1.949
			c7.409-14.949,16.124-29.42,21.795-45.002c4.231-11.623,9.637-17.221,22.317-19.246c38.813-6.193,76.798-15.928,112.462-33.152
			c3.668-1.775,7.307-3.611,13.125-6.518C582.428,297.538,582.261,296.432,580.033,296.073z"/>
	</g>
</g>
<g>
</g>
<g>
</g>
<g>
</g>
<g>
</g>
<g>
</g>
<g>
</g>
<g>
</g>
<g>
</g>
<g>
</g>
<g>
</g>
<g>
</g>
<g>
</g>
<g>
</g>
<g>
</g>
<g>
</g>
</svg>
