<?xml version="1.0" encoding="iso-8859-1"?>
<!-- Generator: Adobe Illustrator 16.0.0, SVG Export Plug-In . SVG Version: 6.00 Build 0)  -->
<!DOCTYPE svg PUBLIC "-//W3C//DTD SVG 1.1//EN" "http://www.w3.org/Graphics/SVG/1.1/DTD/svg11.dtd">
<svg version="1.1" id="Capa_1" xmlns="http://www.w3.org/2000/svg" xmlns:xlink="http://www.w3.org/1999/xlink" x="0px" y="0px"
	 width="567.133px" height="567.133px" viewBox="0 0 567.133 567.133" style="enable-background:new 0 0 567.133 567.133;"
	 xml:space="preserve">
<g>
	<g>
		<path d="M564.093,295.585c-9.608,2.396-17.96,4.48-29.005,7.234c-2.187,0.547-3.154-0.657-2.162-2.677
			c5.019-10.229,9.18-18.714,14.17-28.89c0.991-2.023,0.285-4.692-1.547-6.001c-10.942-7.83-22.003-17.352-34.781-22.983
			c-28.675-12.631-58.626-22.333-87.688-34.129c-6.749-2.738-14.941-7.805-17.512-13.893c-9.604-22.754-26.981-36.198-49.136-43.309
			c-7.56-2.423-17.817-0.42-25.635,2.644c-32.979,12.929-65.169,27.887-98.315,40.343c-17.707,6.654-36.769,9.694-55.202,14.435
			c-4.68,1.204-10.886,1.252-13.607,4.309c-5.402,6.071-11.559,13.644-12.167,21.028c-0.314,3.798,5.459,8.095,9.984,12.061
			c1.697,1.485,1.358,3.684-0.677,4.655c-22.285,10.669-42.84,8.09-65.076-9.878c-18.723-15.128-36.683-31.249-55.941-45.643
			c-10.461-7.821-22.44-13.611-34.468-19.098c-2.048-0.935-2.734-0.151-1.555,1.771c37.21,60.678,38.254,119.299-3.121,180.405
			c-1.265,1.864-0.641,2.627,1.432,1.742c13.48-5.741,27.246-10.955,40.127-17.826c15.749-8.396,30.135-19.347,45.843-27.838
			c31.342-16.944,45.843-17.797,77.328-6.348c2.118,0.771,3.362,3.19,2.632,5.32c-2.509,7.311-6.234,14.68-4.333,20.065
			c5.381,15.267,32.473,27.996,45.998,23.725c13.509-4.268,26.622-9.792,40.155-13.978c4.941-1.53,11.485-2.746,15.769-0.779
			c38.344,17.609,78.511,19.588,119.564,15.577c0.481-0.045,0.996,0.294,1.522,0.714c0.738,0.592,0.478,2.677-0.584,4.663
			c-13.876,25.994-13.614,28.066,5.773,52.18c1.412,1.754,4.305,2.623,6.377,1.733c26.206-11.265,17.324-38.205,24.908-58.895
			c0.775-2.113,3.391-4.133,5.594-4.598c45.941-9.743,93.33-20.009,135.236-46.071c1.677-1.041,1.995-4.264,3.027-8.817
			C567.523,296.344,566.279,295.038,564.093,295.585z"/>
	</g>
</g>
<g>
</g>
<g>
</g>
<g>
</g>
<g>
</g>
<g>
</g>
<g>
</g>
<g>
</g>
<g>
</g>
<g>
</g>
<g>
</g>
<g>
</g>
<g>
</g>
<g>
</g>
<g>
</g>
<g>
</g>
</svg>
