<?xml version="1.0" encoding="iso-8859-1"?>
<!-- Generator: Adobe Illustrator 16.0.0, SVG Export Plug-In . SVG Version: 6.00 Build 0)  -->
<!DOCTYPE svg PUBLIC "-//W3C//DTD SVG 1.1//EN" "http://www.w3.org/Graphics/SVG/1.1/DTD/svg11.dtd">
<svg version="1.1" id="Capa_1" xmlns="http://www.w3.org/2000/svg" xmlns:xlink="http://www.w3.org/1999/xlink" x="0px" y="0px"
	 width="578.691px" height="578.691px" viewBox="0 0 578.691 578.691" style="enable-background:new 0 0 578.691 578.691;"
	 xml:space="preserve">
<g>
	<g>
		<path d="M561.307,310.186c-1.059-1.6-1.617-3.378-1.738-5.206c0.17-0.71,0.264-1.478,0.623-2.057
			c2.705-4.378,5.387-8.768,8.115-13.129c0.518-0.828,1.064-1.632,1.625-2.436c4.402-1.881,2.166-9.384-3.053-8.237
			c-1.057,0.232-2.113,0.465-3.17,0.697c-0.479-0.085-0.955-0.11-1.428-0.106c-9.535-6.671-18.639-13.852-28.328-20.065
			c-34.064-22.897-73.773-37.263-114.619-41.122c-0.641-0.278-1.318-0.486-2.012-0.645c0.16-0.016,0.318-0.033,0.479-0.049
			c-5.447-5.912-28.953-22.052-33.15-21.901c2.006,1.701,1.848,3.125,0.979,2.497c-4.436-3.191-8.936-5.508-13.787-0.555
			c0.547,0.331,1.086,0.677,1.621,1.037c-1.082-0.033-2.166-0.029-3.252,0.012c-0.898-0.616-1.791-1.232-2.686-1.844
			c-1.701-1.167-3.439-0.89-4.838,0.4c-3.211,2.962-6.688,2.868-10.281,1.061c-1.854-0.93-2.975-0.775-3.893,1.245
			c-0.236,0.522-0.514,0.983-0.832,1.387c-0.314-0.033-0.629-0.057-0.947-0.065c-2.881-0.053-5.557,0.992-7.646,2.733
			c-1.559-0.579-3.336-0.763-5.01-1.016c-1.416-0.212-3.488,1.86-4.332,4.027c-1.576,0.372-3.15,0.743-4.725,1.11
			c-1.24-0.18-2.473-0.375-3.697-0.62c-1.746-0.351-3.102-0.298-4.48,1.13c-2.418,2.509-5.553,2.595-8.697,1.714
			c-1.963-0.547-3.412-0.396-4.953,1.24c-0.551,0.587-1.168,1.02-1.824,1.334c-1.262-0.51-2.623-0.812-4.047-0.836
			c-3.18-0.057-6.113,1.22-8.275,3.297c-5.3,0.665-10.612,1.224-15.916,1.852c-0.632,0.074-1.265,0.335-1.853,0.604
			c-0.706,0.322-1.322,0.967-2.044,1.098c-4.451,0.82-8.923,1.53-13.386,2.293c-3.876,0.661-7.752,1.301-11.62,2.02
			c-4.737,0.877-9.531,1.562-14.17,2.811c-5.259,1.42-10.73,2.232-15.345,5.724c-2.811,2.13-6.609,2.982-9.343,5.178
			c-3.888,3.121-7.352,6.822-10.702,10.535c-1.318,1.457,0.355,2.252,1.665,2.427c6.034,0.824,12.073,1.575,18.111,2.35
			c1.607,1.334,3.562,2.228,5.65,2.587c0,0.102-0.004,0.2,0,0.302c-4.206,1.016-8.339,2.35-12.358,3.982
			c-2.228,0.404-4.459,0.795-6.695,1.191c-4.729-3.766-9.543-7.425-14.358-11.081c-2.346-1.779-3.203-1.481-4.3,1.212
			c-1.767,4.337-3.056,8.707-3.872,13.105c-0.119-0.017-0.216-0.029-0.318-0.041c-0.583-0.106-1.163-0.216-1.742-0.339
			c-1.371-0.306-2.738-0.62-4.084-1.02c-2.35-0.694-4.68-1.469-6.944-2.42c-0.188-0.077-0.338-0.143-0.469-0.2
			c-0.506-0.237-1.012-0.473-1.514-0.722c-1.244-0.624-2.485-1.257-3.701-1.938c-2.432-1.367-4.826-2.803-7.144-4.354
			c-2.289-1.53-4.541-3.113-6.744-4.765c0.008-0.012,0.021-0.024,0.033-0.037c-0.351-0.42-0.551-0.771-0.845-0.995
			c-6.626-4.958-13.713-9.409-19.8-14.958c-12.011-10.951-25.871-19.339-38.723-29.115c-7.756-5.9-15.602-11.71-23.692-17.14
			c-10.849-7.279-22.04-14.002-34.566-18.144c-2.452-0.812-4.472-3.419-7.756-1.652c0.624,0.555,1.191,0.996,1.693,1.514
			c4.007,4.142,8.062,8.242,11.987,12.465c10.082,10.84,20.155,21.693,30.123,32.64c2.95,3.24,5.537,6.806,8.287,10.229
			c4.635,5.77,9.433,11.412,13.843,17.348c3.411,4.59,6.659,9.368,9.368,14.395c2.852,5.288,2.726,11.028,0.804,16.752
			c-4.378,13.031-12.146,23.366-23.676,30.987c-13.782,9.111-27.801,17.838-43.276,23.722c-7.14,2.717-14.835,3.97-22.281,5.862
			c-2.44,0.62-4.9,1.155-7.353,1.73c-0.008,0.294-0.016,0.583-0.02,0.877c4.737,0.44,9.469,1.24,14.207,1.253
			c9.698,0.021,19.666,0.987,29.041-0.873c26.263-5.223,51.926-12.914,77.467-21.004c13.448-4.26,27.234-7.454,40.869-11.127
			c4.17-1.126,8.315-0.86,12.383,0.421c17.65,5.561,35.296,11.154,52.917,16.801c1.094,0.352,2.008,1.249,3.003,1.894
			c-0.004,0.384-0.012,0.763-0.02,1.146c-13.852,4.606-27.699,9.209-42.2,14.031c1.15,0.403,1.624,0.673,2.118,0.726
			c5.198,0.547,10.44,0.829,15.594,1.648c3.774,0.604,7.425,1.967,11.159,2.881c2.889,0.706,5.871,1.057,8.715,1.901
			c4.606,1.371,9.131,3.015,13.688,4.545c2.913,0.979,5.786,2.143,8.764,2.848c1.061,0.249,2.432-0.493,3.578-0.979
			c9.682-4.093,19.368-8.185,29.001-12.388c2.403-1.048,4.729-1.31,7.03-0.897c0.012,0.058,0.021,0.11,0.033,0.168
			c1.269,5.638,3.705,10.673,10.029,12.492c3.08,0.886,7.396-0.367,9.273-2.938c0.176-0.24,0.334-0.485,0.502-0.726
			c6.932,3.251,14.293,4.663,21.922,5.132c14.68,0.91,29.352,2.04,44.043,2.624c10.906,0.433,21.84,0.122,32.764,0.2
			c1.807,0.012,3.613,0.322,6.006,0.551c-2.486,1.962-4.502,3.554-6.516,5.145c-1.201,0.804-2.4,1.611-3.604,2.415
			c-2.506,0.094-5.137,2.183-4.553,5.41c1.289,7.189,2.582,14.374,3.871,21.562c0.934,5.215,3.66,13.053-0.91,17.263
			c-4.021,3.709,1.506,9.707,5.639,6.699c0.098,0.037,0.195,0.069,0.299,0.106c1.035-1.167,2.186-2.252,3.1-3.509
			c10.441-14.354,19.014-29.702,24.689-46.585c0.188-0.556,0.506-1.102,0.533-1.665c0.326-6.553,4.105-8.336,10.246-9.278
			c20.016-3.072,40.121-6.07,59.783-10.8c15.158-3.644,29.73-9.747,44.492-14.961c7.613-2.688,15.068-5.83,22.6-8.756
			c4.182-1.624,6.074-3.113,7.137-5.605c-4.832-0.086-9.707-0.135-14.582-0.282C563.465,310.826,562.533,310.292,561.307,310.186z"
			/>
	</g>
</g>
<g>
</g>
<g>
</g>
<g>
</g>
<g>
</g>
<g>
</g>
<g>
</g>
<g>
</g>
<g>
</g>
<g>
</g>
<g>
</g>
<g>
</g>
<g>
</g>
<g>
</g>
<g>
</g>
<g>
</g>
</svg>
