<?xml version="1.0" encoding="iso-8859-1"?>
<!-- Generator: Adobe Illustrator 16.0.0, SVG Export Plug-In . SVG Version: 6.00 Build 0)  -->
<!DOCTYPE svg PUBLIC "-//W3C//DTD SVG 1.1//EN" "http://www.w3.org/Graphics/SVG/1.1/DTD/svg11.dtd">
<svg version="1.1" id="Capa_1" xmlns="http://www.w3.org/2000/svg" xmlns:xlink="http://www.w3.org/1999/xlink" x="0px" y="0px"
	 width="565.449px" height="565.449px" viewBox="0 0 565.449 565.449" style="enable-background:new 0 0 565.449 565.449;"
	 xml:space="preserve">
<g>
	<g>
		<path d="M2.75,344.608c12.95-4.811,26.336-8.76,38.581-14.97c21.387-10.841,42.126-23.012,62.832-35.149
			c10.669-6.255,20.836-10.277,32.199-2.003c1.485,1.085,3.9,2.211,5.406,1.75c16.703-5.096,26.434,11.012,41.073,13.276
			c14.321,2.216,27.972,8.589,42.016,12.819c10.935,3.297,17.283,9.666,16.41,22.754c-0.073,1.126,0.543,1.481,1.465,0.837
			c3.199-2.232,5.757-3.66,7.483-5.77c12.913-15.769,29.437-18.237,48.895-16.728c36.312,2.814,72.787,3.599,109.364,5.182
			c1.126,0.049,1.448,0.783,0.719,1.64c-0.972,1.139-2.143,2.51-3.415,4.003c-0.73,0.856-0.996,2.411-0.596,3.464
			c4.092,10.697,8.225,21.506,12.362,32.317c0.403,1.053,1.64,1.987,2.762,2.093c0.004,0,0.013,0,0.017,0
			c1.122,0.106,2.24-0.697,2.501-1.795c2.881-12.166,6.177-24.264,8.233-36.569c0.967-5.789,2.077-9.314,8.494-9.869
			c34.99-3.031,68.381-12.51,101.066-25.006c7.168-2.742,14.818-4.215,23.852-6.569c1.089-0.285,1.31-1.15,0.461-1.889
			c-5.472-4.766-11.232-8.029-11.987-12.199c-0.722-4.011,3.651-8.936,7.1-14.811c0.571-0.971,0.105-1.975-0.996-2.224
			c-25.034-5.643-49.282-12.003-73.896-16.238c-28.977-4.982-58.295-7.96-87.459-11.849c-3.06-0.408-6.414-0.4-9.078-1.705
			c-13.578-6.671-27.283-8.001-42.22-4.7c-4.288,0.946-10.845-3.525-14.847-7.169c-7.152-6.516-13.351-14.08-20.18-21.652
			c-0.755-0.836-1.849-0.726-2.465,0.216c-14.097,21.575-34.733,28.584-55.713,34.712c-30.759,8.988-61.338,19.033-92.645,25.455
			c-12.558,2.575-25.769,5.924-38.209,6.23c-9.645,0.236-19.78-9.037-29.266-14.794c-19.478-11.824-38.303-24.766-58.124-35.97
			c-9.976-5.638-21.302-8.882-32.852-11.412c-1.102-0.241-1.318,0.171-0.469,0.918c14.811,13.089,29.812,25.978,44.292,39.425
			c6.756,6.275,12.934,13.354,18.421,20.771c7.042,9.519,5.712,19.107-3.015,27.035c-16.916,15.36-34.068,30.461-51.191,45.59
			c-2.889,2.55-6.01,4.839-9.074,7.188c-0.894,0.686-1.297,1.881-0.91,2.66C0.527,344.693,1.694,345,2.75,344.608z"/>
	</g>
</g>
<g>
</g>
<g>
</g>
<g>
</g>
<g>
</g>
<g>
</g>
<g>
</g>
<g>
</g>
<g>
</g>
<g>
</g>
<g>
</g>
<g>
</g>
<g>
</g>
<g>
</g>
<g>
</g>
<g>
</g>
</svg>
