<?xml version="1.0" encoding="iso-8859-1"?>
<!-- Generator: Adobe Illustrator 16.0.0, SVG Export Plug-In . SVG Version: 6.00 Build 0)  -->
<!DOCTYPE svg PUBLIC "-//W3C//DTD SVG 1.1//EN" "http://www.w3.org/Graphics/SVG/1.1/DTD/svg11.dtd">
<svg version="1.1" id="Capa_1" xmlns="http://www.w3.org/2000/svg" xmlns:xlink="http://www.w3.org/1999/xlink" x="0px" y="0px"
	 width="560.889px" height="560.889px" viewBox="0 0 560.889 560.889" style="enable-background:new 0 0 560.889 560.889;"
	 xml:space="preserve">
<g>
	<g>
		<path d="M554.707,28.069c-2.921-6.141-7.372-12.134-10.971-17.532c0.232-0.526,0.47-1.053,0.702-1.583
			c0.521-1.184,0.159-2.624-1.22-2.995c-4.717-1.281-9.331-1.542-13.787-0.804c-0.109-0.657-0.538-1.228-1.424-1.383
			c-2.044-0.355-4.088-0.71-6.132-1.069c-1.652-0.29-2.823,1.073-3.668,2.313c-0.996,1.457-1.11,3.215-0.714,4.868
			c-0.2,0.13-0.408,0.232-0.608,0.367c-0.024,0.016-0.036,0.041-0.062,0.061c-6.05,1.453-12.056,3.072-17.854,5.218
			c-4.505,1.669-8.96,3.476-13.395,5.329c-5.802,0.897-11.359,2.452-16.896,4.79c-4.149,1.75-7.939,4.888-11.849,7.544
			c-0.334-0.571-0.914-1.024-1.688-1.118c-3.685-0.437-7.014,2.011-8.079,5.483c-0.032,0.114-0.012,0.204-0.028,0.31
			c-3.317,1.053-6.585,2.252-9.809,3.583c-5.813,0.021-10.094,2.624-13.978,5.863c-0.163-0.693-0.596-1.318-1.367-1.469
			c-1.411-0.273-2.799-0.106-4.067,0.339c-0.922-0.551-1.84-1.106-2.763-1.657c-1.415-0.849-2.945,0.273-3.067,1.763
			c-1.004,12.048-15.227,8.637-22.971,13.17c-3.814,2.231-6.455,6.173-8.535,10.277c-0.47,0.575-0.955,1.138-1.384,1.75
			c-0.273,0.387-0.521,0.799-0.791,1.191c-10.425,6.014-19.895,13.717-29.727,20.604
			c-97.113,68.009-177.448,152.437-242.887,251.094c-17.36,26.174-33.236,53.326-50.314,79.691
			c-2.754,4.247-7.801,7.915-12.591,9.751c-10.2,3.917-20.792,6.683-30.11,9.457c-1.469-0.371-2.896-0.926-4.284-1.624
			c-0.408-1.077-1.636-1.737-2.607-1.379c-1.893-0.763-3.431,1.869-2.007,3.342c-3.203,7.54-5.94,16.107-1.31,23.582
			c0.84,1.359,1.95,2.538,3.211,3.509c-0.028,0.159-0.057,0.311-0.09,0.47c0.277,0.008,0.531,0.012,0.804,0.021
			c2.371,1.607,5.19,2.452,7.96,2.269c-0.159,0.571-0.331,1.04-0.641,1.383c-9.572,10.648-11.02,22.615-6.891,36.047
			c4.72,15.365,8.727,30.946,13.296,47.328c8.625-5.031,14.631-14.578,18.919-24.766c8.964-21.294,17.956-42.681,24.97-64.656
			c5.153-16.136,13.672-26.671,29.854-32.542c38.099-13.827,75.525-29.535,113.75-42.982
			c46.622-16.401,88.165-41.849,128.859-69.018c13.198-8.812,25.732-18.527,37.119-26.875c-0.061,3.627,1.481,6.912,3.909,10.192
			c-0.024,0.064-0.069,0.105-0.09,0.179c-0.689,2.485-0.376,8.654,3.284,8.85c1.922,0.103,3.685,0.612,5.353,1.33
			c1.335,1.665,2.632,3.37,3.815,5.235c1.089,1.713,2.688,4.81,4.051,8.343c0.314,6.202-1.982,12.045-6.254,16.476
			c-0.816,0.081-1.485,0.559-1.775,1.444l-0.09,0.27c-0.105,0.09-0.199,0.195-0.31,0.285c-0.787,0.641-0.832,1.452-0.485,2.122
			c-0.106,0.322-0.213,0.64-0.318,0.962c-0.445,1.351,0.718,2.477,1.967,2.583c4.145,0.351,7.666-1.281,10.167-3.941
			c3.599-0.791,6.866-2.403,9.62-4.794c1.122-0.547,2.167-1.163,2.938-2.027c15.246-17.128,29.062-35.215,31.044-59.271
			c1.184-14.365,3.126-28.841,2.399-43.149c-0.926-18.209,7.997-31.506,19.515-42.856c39.519-38.956,66.798-85.839,90.662-135.191
			c4.598-9.506,11.183-18.339,6.005-29.527C557.874,32.5,556.384,30.199,554.707,28.069z"/>
	</g>
</g>
<g>
</g>
<g>
</g>
<g>
</g>
<g>
</g>
<g>
</g>
<g>
</g>
<g>
</g>
<g>
</g>
<g>
</g>
<g>
</g>
<g>
</g>
<g>
</g>
<g>
</g>
<g>
</g>
<g>
</g>
</svg>
