<?xml version="1.0" encoding="iso-8859-1"?>
<!-- Generator: Adobe Illustrator 16.0.0, SVG Export Plug-In . SVG Version: 6.00 Build 0)  -->
<!DOCTYPE svg PUBLIC "-//W3C//DTD SVG 1.1//EN" "http://www.w3.org/Graphics/SVG/1.1/DTD/svg11.dtd">
<svg version="1.1" id="Capa_1" xmlns="http://www.w3.org/2000/svg" xmlns:xlink="http://www.w3.org/1999/xlink" x="0px" y="0px"
	 width="583.938px" height="583.938px" viewBox="0 0 583.938 583.938" style="enable-background:new 0 0 583.938 583.938;"
	 xml:space="preserve">
<g>
	<g>
		<path d="M582.868,316.265c-0.678-0.363-1.347-0.815-2.016-1.269c-1.779-1.191-3.619-2.424-5.806-2.579
			c-2.758-0.191-5.721-0.277-9.604-0.277c-1.995,0-4.084,0.021-6.328,0.045c-1.199,0.013-2.444,0.024-3.741,0.037
			c1.729-1.897,3.387-3.726,4.99-5.496c5.626-6.21,10.485-11.575,15.63-16.761c2.893-2.913,4.215-5.802,3.934-8.588
			c-0.277-2.759-2.122-5.288-5.468-7.52c-8.955-5.961-17.973-11.828-26.993-17.691c-7.561-4.916-15.12-9.828-22.64-14.802
			c-34.574-22.864-74.484-37.969-125.607-47.524c-7.662-1.432-11.199-4.562-14.015-12.407c-3.614-10.077-7.642-19.804-11.901-30.106
			c-1.774-4.292-3.569-8.633-5.356-13.056c-0.307-0.759-1.032-1.257-1.849-1.273c-0.86-0.008-1.562,0.457-1.901,1.2l-6.568,14.504
			l-10.674-17.833c-0.403-0.67-1.167-1.073-1.926-0.983c-0.775,0.065-1.448,0.571-1.729,1.297l-7.577,19.683l-12.982-17.65
			c-0.497-0.673-1.351-0.971-2.166-0.763c-0.808,0.216-1.408,0.901-1.506,1.733l-2.647,22.526l-9.633-7.271
			c-0.535-0.408-1.232-0.522-1.869-0.311s-1.126,0.722-1.317,1.362l-4.076,13.917l-13.636-11.195
			c-0.841-0.689-2.081-0.6-2.812,0.212c-1.885,2.098-1.889,5.28-1.889,8.087c-0.004,4.896-0.457,5.431-2.235,5.431
			c-1.176,0-2.799-0.376-4.823-1.118c-0.575-0.208-1.22-0.151-1.746,0.167c-0.526,0.314-0.885,0.854-0.975,1.461l-1.184,8.241
			l-8.172-5.618c-0.698-0.477-1.616-0.481-2.31,0c-0.693,0.478-1.024,1.335-0.828,2.154l0.229,0.951
			c-1.869,0.645-3.733,1.302-5.594,1.958c-5.275,1.856-10.734,3.774-16.148,5.431c-2.905,0.886-5.896,1.318-9.147,1.318
			c-5.88,0-11.824-1.457-17.568-2.864c-5.112-1.253-10.4-2.551-15.753-2.868c-1.098-0.065-2.212-0.099-3.346-0.099
			c-11.841,0-24.04,3.424-32.636,9.16c-16.863,11.252-32.42,24.912-44.999,39.515c-6.324,7.34-8.662,16.442-6.577,25.635
			c1.991,8.788,7.891,16.454,16.05,21.053c-3.655,2.105-8.775,3.312-14.349,3.312c-5.708,0-11.277-1.232-16.096-3.558
			c-10.894-5.263-21.844-10.901-32.436-16.356c-9.192-4.737-18.703-9.633-28.152-14.272c-5.239-2.57-10.706-4.549-16.491-6.642
			c-2.705-0.979-5.484-1.983-8.335-3.085c-0.563-0.216-1.188-0.175-1.714,0.114c-0.526,0.286-0.901,0.792-1.02,1.379
			C-5.29,285.992,2.569,334.135,9.5,376.609c0.086,0.538,0.388,1.02,0.833,1.334c0.445,0.313,1,0.437,1.534,0.347
			c1.628-0.286,3.207-0.465,4.72-0.633c3.281-0.371,6.377-0.722,9.176-2.027c4.598-2.146,9.229-4.243,13.859-6.341
			c14.753-6.683,30.004-13.594,44.068-22.061c11.489-6.919,23.656-10.143,38.287-10.143c11.714,0,23.632,2.105,34.831,4.256
			c0.526,0.102,1.33,0.701,2.55,1.607c0.103,0.077,0.213,0.159,0.322,0.24l-1.982,0.616c-3.562,1.109-6.394,1.995-9.241,2.827
			c-1.15,0.339-2.366,0.567-3.574,0.796c-2.607,0.502-5.3,1.016-7.593,2.48c-14.912,9.539-15.899,13.203-8.14,30.155
			c0.641,1.399,1.22,2.832,1.8,4.26c0.697,1.726,1.399,3.447,2.198,5.124c4.636,9.739,13.061,15.554,22.534,15.554
			c3.325,0,6.708-0.706,10.041-2.098c8.396-3.5,16.643-7.662,24.614-11.688c5.712-2.885,11.624-5.867,17.516-8.572
			c2.061-0.942,4.619-1.114,7.324-1.294c0.709-0.045,1.424-0.094,2.125-0.154l0.343,1.509c0.131,0.571,0.502,1.057,1.016,1.339
			c0.519,0.281,1.127,0.322,1.678,0.122c0.146-0.053,0.313-0.086,0.485-0.126c0.738-0.172,1.86-0.437,2.525-1.444
			c5.528-8.323,11.444-12.199,18.608-12.199c5.088,0,10.996,1.885,18.597,5.928c13.448,7.16,28.528,10.498,47.459,10.498
			c11.645,0,23.533-1.244,35.031-2.452l6.446-0.669c1.313-0.135,2.623-0.335,3.933-0.534c0.702-0.11,1.404-0.221,2.143-0.318
			c-0.371,0.212-0.738,0.424-1.105,0.632c-4.631,2.64-9.009,5.137-13.15,7.83c-8.213,5.345-10.465,12.982-6.52,22.076
			c3.243,7.483,6.356,15.219,9.649,23.411c1.533,3.819,3.133,7.797,4.847,12c0.261,0.645,0.836,1.109,1.521,1.235
			c0.123,0.025,0.245,0.033,0.367,0.033c0.563,0,1.106-0.232,1.493-0.653c1.824-1.962,3.611-3.7,5.288-5.34
			c3.541-3.456,6.602-6.442,8.768-10.151c4.818-8.246,9.413-16.793,13.852-25.056c3.979-7.401,8.087-15.051,12.338-22.443
			c1.771-3.081,5.423-6.116,7.369-6.125c53.795-0.277,105.431-15.002,153.485-43.766c4.198-2.514,8.898-4.484,13.443-6.394
			c3.284-1.375,6.679-2.803,9.927-4.438c1.967-0.992,3.338-2.71,4.659-4.366c0.515-0.648,1.032-1.302,1.583-1.885
			c0.433-0.461,0.633-1.098,0.53-1.722C583.81,317.102,583.426,316.567,582.868,316.265z"/>
	</g>
</g>
<g>
</g>
<g>
</g>
<g>
</g>
<g>
</g>
<g>
</g>
<g>
</g>
<g>
</g>
<g>
</g>
<g>
</g>
<g>
</g>
<g>
</g>
<g>
</g>
<g>
</g>
<g>
</g>
<g>
</g>
</svg>
