<?xml version="1.0" encoding="iso-8859-1"?>
<!-- Generator: Adobe Illustrator 16.0.0, SVG Export Plug-In . SVG Version: 6.00 Build 0)  -->
<!DOCTYPE svg PUBLIC "-//W3C//DTD SVG 1.1//EN" "http://www.w3.org/Graphics/SVG/1.1/DTD/svg11.dtd">
<svg version="1.1" id="Capa_1" xmlns="http://www.w3.org/2000/svg" xmlns:xlink="http://www.w3.org/1999/xlink" x="0px" y="0px"
	 width="597.59px" height="597.59px" viewBox="0 0 597.59 597.59" style="enable-background:new 0 0 597.59 597.59;"
	 xml:space="preserve">
<g>
	<g>
		<path d="M590.205,125.145v-0.718c0-2.632-4.08-2.632-4.08,0v2.04c0,0.416,0.127,0.742,0.297,1.028
			c-1.049,0.649-2.096,1.302-3.145,1.951c-0.041-0.167-0.086-0.335-0.127-0.502c-0.645-2.55-4.582-1.469-3.934,1.085
			c0.143,0.559,0.281,1.114,0.426,1.673c-1.947,1.208-3.889,2.411-5.832,3.619c-1.121-1.126-2.859-1.51-4.545-1.224
			c-1.129,0.192-1.979,1.004-2.635,1.873c-0.832,1.098-0.469,2.53-0.037,3.831c-0.66,0.412-1.326,0.824-1.986,1.232
			c-1.209-0.542-2.959,0.024-2.959,1.754v0.082c-1.742,1.081-3.488,2.163-5.23,3.248c-1.207-0.518-2.93,0.057-2.93,1.771v0.045
			c-1.75,1.085-3.504,2.174-5.254,3.26c-0.719-1.815-3.926-1.562-3.926,0.771v1.661c-0.674,0.42-1.35,0.836-2.023,1.257
			c-2.236,0.355-4.473,0.71-6.707,1.065c-0.877,0.139-1.506,1.138-1.498,1.966c0.004,0.686,0.012,1.367,0.016,2.052l-3.193,1.983
			l-0.389-0.481c0.311-0.326,0.531-0.755,0.531-1.338v-3.166c9.648-11.044,18.311-23.056,28.311-33.758
			c0.547-0.196,0.971-0.628,1.15-1.252c3.652-3.827,7.482-7.471,11.625-10.816c0.721,0.543,1.725,0.669,2.537-0.175
			c1.738-1.807,3.473-3.619,5.211-5.426c1.088-0.706,2.109-1.485,3.246-2.15c0.404,0.433,0.918,0.755,1.494,0.947
			c0.881,0.636,2.256,0.71,3.053-0.449c0.191-0.277,0.326-0.575,0.51-0.857c0.02-0.049,0.061-0.085,0.08-0.135
			c4.6-7.16,6.439-15.324,5.566-23.419c1.012-9.025-0.057-18.099-6.246-27.173c-7.822-11.473-16.154-22.652-24.803-33.53
			C551.396,4.45,538.303,3.475,525.32,14.471c-49.976,42.326-100.331,84.207-150.115,126.757
			c-17.956,15.349-33.374,33.905-52.293,47.862c-35.268,26.022-72.057,50.033-108.684,74.191
			c-6.993,4.614-15.965,6.626-24.357,8.784c-9.184,2.362-13.844,7.36-15.121,17.242c-1.469,11.371-3.57,22.896-7.523,33.403
			c-2.424,6.446-5.671,12.692-9.474,18.486c-0.429-0.09-0.902-0.029-1.383,0.322l-8.258,5.985c-1.016,0.734-1.057,1.93-0.604,2.807
			c-5.953,3.31-11.979,6.491-18.181,9.376c-0.583,0.273-0.894,0.689-1.003,1.146c-1.546,0.812-2.46,2.66-2.097,4.419
			c0.237,1.143,1.138,1.53,2.023,1.424c-1.097,1.615-1.889,3.436-2.15,5.414c-0.192-0.008-0.375-0.032-0.587,0.017
			c-3.794,0.877-6.047,4.553-5.786,8.185c-4.598,1.146-8.515,5.3-8.05,10.375c0.033,0.367,0.155,0.665,0.318,0.931
			c-0.392-0.062-0.812-0.033-1.257,0.277c-2.468,1.718-4.178,4.071-5.1,6.69c-2.439,0.355-4.729,1.216-6.781,2.469
			c-0.282,0.09-0.53,0.245-0.743,0.449c-3.843,2.611-6.663,6.716-7.678,11.681c-1.032-0.42-2.35-0.135-2.697,1.257
			c-0.146,0.592-0.298,1.183-0.444,1.774c-0.881-0.114-1.804,0.282-2.089,1.412c-0.343,1.358-0.685,2.717-1.032,4.076l0,0
			c-0.506,0.229-1.008,0.452-1.509,0.681c-0.486-0.139-1-0.077-1.494,0.241c-1.211-0.629-3.056-0.082-3.04,1.697
			c0.004,0.473,0.062,0.93,0.151,1.371c-0.167,0.428-0.176,0.894-0.053,1.321c-0.012,0.131-0.065,0.232-0.065,0.371v1.021
			c0,0.971,0.555,1.575,1.257,1.832c-9.551,7.426-17.348,15.5-20.086,27.662c-4.112,18.262-16.875,26.789-33.211,31.86
			c-3.566,1.106-7.091,2.416-10.792,3.819c-0.298-0.098-0.625-0.143-0.988-0.09c-2.407,0.359-4.81,0.723-7.217,1.081
			c-1.204,0.18-1.559,1.518-1.424,2.51c0.343,2.558,1.775,4.675,3.757,6.136c0.212,0.641,0.38,1.273,0.563,1.909
			c-0.682,0.262-1.224,0.861-1.216,1.816c0.008,1.195-0.327,2.982,0.302,4.056c0.224,0.383,0.596,0.718,1.016,1.023
			c-1.656,3.101-1.167,6.944,1.061,9.674c-2.905,1.444-5.19,3.884-6.495,7.107c-0.396,0.979,0.016,1.718,0.693,2.113
			c0.008,0.449,0.147,0.91,0.539,1.326l2.693,2.86c-0.702,1.077-0.865,2.411-0.571,3.635c-0.216,0.11-0.428,0.257-0.624,0.481
			c-2.346,2.729-1.934,6.813,0.983,8.895c-0.171,0.935-0.298,1.877-0.465,2.812c-1.126-0.2-2.469,0.416-2.546,1.901
			c-0.469,9.253-2.122,18.074-5.263,26.797c-0.894,2.48,3.047,3.541,3.933,1.085c0.522-1.444,0.934-2.9,1.375-4.353
			c-0.151,4.23-0.273,8.47-0.506,12.685c1.265,0.514,2.529,1.032,3.794,1.546c3.174-5.691,6.459-11.313,9.499-17.079
			c11.656-22.121,22.88-44.504,35.1-66.271c2.771-4.933,8.238-9.306,13.574-11.321c31.787-12.024,63.668-23.901,95.994-34.574
			c20.388-6.732,35.129-20.882,50.967-33.786c15.512-12.641,31.286-24.533,50.511-31.771c9.261-3.488,17.168-10.334,25.381-16.092
			c21.449-15.042,42.792-30.232,64.032-45.565c6.998-5.051,13.583-10.677,20.294-16.111c10.563-8.556,21.073-17.173,31.11-25.361
			c14.063,11.216,14.569,10.392,23.276-1.322c5.871-7.903,13.513-13.954,11.652-25.924c-0.294-1.894,4.174-4.59,6.847-6.304
			c26.385-16.932,47.308-39.172,66.246-64.297c10.146-13.464,25.998-22.399,39.539-33.048c11.6-9.123,23.668-17.654,35.324-26.708
			c3.525-2.737,6.361-6.353,9.516-9.567c-0.824-1.118-1.648-2.232-2.473-3.35C593.477,123.117,591.842,124.133,590.205,125.145z"/>
	</g>
</g>
<g>
</g>
<g>
</g>
<g>
</g>
<g>
</g>
<g>
</g>
<g>
</g>
<g>
</g>
<g>
</g>
<g>
</g>
<g>
</g>
<g>
</g>
<g>
</g>
<g>
</g>
<g>
</g>
<g>
</g>
</svg>
